<?xml version="1.0" standalone="no"?>
<!DOCTYPE svg PUBLIC "-//W3C//DTD SVG 20010904//EN"
 "http://www.w3.org/TR/2001/REC-SVG-20010904/DTD/svg10.dtd">
<svg version="1.0" xmlns="http://www.w3.org/2000/svg"
 width="512.000000pt" height="512.000000pt" viewBox="0 0 512.000000 512.000000"
 preserveAspectRatio="xMidYMid meet">
<metadata>
Created by potrace 1.14, written by Peter Selinger 2001-2017
</metadata>
<g transform="translate(0.000000,512.000000) scale(0.100000,-0.100000)"
fill="#000000" stroke="none">
<path d="M2378 5115 c-2 -1 -39 -5 -82 -9 -44 -4 -82 -9 -85 -11 -4 -2 -34 -7
-66 -10 -117 -14 -472 -111 -499 -136 -6 -5 -16 -9 -23 -9 -8 0 -49 -16 -91
-35 -301 -137 -543 -302 -774 -528 l-29 -27 -364 -1 -365 0 0 -119 0 -120 261
0 260 0 -65 -92 -64 -93 -196 0 -196 0 0 -117 0 -117 129 -3 130 -3 -39 -88
c-80 -180 -150 -404 -174 -561 -4 -21 -8 -41 -10 -45 -4 -6 -12 -73 -26 -201
-10 -104 -4 -448 9 -545 28 -190 57 -319 106 -469 34 -104 111 -300 126 -321
3 -5 28 -50 53 -100 67 -129 166 -278 285 -428 79 -101 231 -250 361 -356 360
-293 768 -473 1240 -547 125 -19 515 -27 635 -13 308 36 576 112 840 238 493
236 889 617 1155 1112 33 62 60 114 60 117 0 2 16 40 36 85 34 77 110 296 118
342 2 11 9 38 14 60 6 22 14 55 17 74 3 19 7 37 9 40 2 3 7 30 11 60 4 30 8
63 11 74 19 100 26 452 12 597 -59 593 -317 1135 -745 1565 -77 77 -163 154
-207 185 -12 8 -30 23 -41 33 -20 19 -212 147 -275 184 -49 29 -276 143 -285
143 -4 0 -21 6 -38 14 -137 62 -421 138 -607 162 -25 3 -56 8 -70 10 -27 6
-456 14 -462 9z"/>
</g>
</svg>
